# AST/ASF file generated using VICON BodyLanguage
# -----------------------------------------------
:version 1.10
:name VICON
:units
  mass 1.0
  length 0.45
  angle deg
:documentation
   .ast/.asf automatically generated from VICON data using
   VICON BodyBuilder and BodyLanguage model FoxedUp or BRILLIANT.MOD
:root
   order TX TY TZ RX RY RZ
   axis XYZ
   position 0 0 0  
   orientation 0 0 0 
:bonedata
  begin
     id 1 
     name lhipjoint
     direction 0.602128 -0.715006 0.355257 
     length 2.21237 
     axis 0 0 0  XYZ
  end
  begin
     id 2 
     name lfemur
     direction 0.34202 -0.939693 0  
     length 6.71649  
     axis 0 0 20  XYZ
    dof rx ry rz
    limits (-160.0 20.0)
           (-70.0 70.0)
           (-60.0 70.0)
  end
  begin
     id 3 
     name ltibia
     direction 0.34202 -0.939693 0   
     length 6.97123   
     axis 0 0 20   XYZ
    dof rx
    limits (-10.0 170.0)
  end
  begin
     id 4 
     name lfoot
     direction 0.0655697 -0.180151 0.981451   
     length 1.80924   
     axis -90 7.62852e-016 20   XYZ
    dof rx rz
    limits (-45.0 90.0)
           (-70.0 20.0)
  end
  begin
     id 5 
     name ltoes
     direction 1.53545e-011 -4.21827e-011 1   
     length 0.916331   
     axis -90 7.62852e-016 20   XYZ
    dof rx
    limits (-90.0 20.0)
  end
  begin
     id 6 
     name rhipjoint
     direction -0.625414 -0.698792 0.347201   
     length 2.2637  
     axis 0 0 0  XYZ 
  end
  begin
     id 7 
     name rfemur
     direction -0.34202 -0.939693 0   
     length 7.07595   
     axis 0 0 -20   XYZ
    dof rx ry rz
    limits (-160.0 20.0)
           (-70.0 70.0)
           (-70.0 60.0)
  end
  begin
     id 8 
     name rtibia
     direction -0.34202 -0.939693 0   
     length 7.22924   
     axis 0 0 -20   XYZ
    dof rx
    limits (-10.0 170.0)
 end
 begin
     id 9 
     name rfoot
     direction -0.0766747 -0.210662 0.974547   
     length 1.98482  
     axis -90 -7.62852e-016 -20   XYZ
    dof rx rz
    limits (-45.0 90.0)
           (-20.0 70.0)
  end
  begin
     id 10 
     name rtoes
     direction -1.53532e-011 -4.21867e-011 1   
     length 0.999842   
     axis -90 -7.62852e-016 -20   XYZ
    dof rx
    limits (-90.0 20.0)
  end
  begin
     id 11 
     name lowerback
     direction -0.0224668 0.997354 -0.0691422   
     length 2.09945   
     axis 0 0 0   XYZ
    dof rx ry rz
    limits (-20.0 45.0)
           (-30.0 30.0)
           (-30.0 30.0)
  end
  begin
     id 12 
     name upperback
     direction 0.0134698 0.998451 -0.0539888   
     length 2.09758   
     axis 0 0 0   XYZ
    dof rx ry rz
    limits (-20.0 45.0)
           (-30.0 30.0)
           (-30.0 30.0)
  end
  begin
     id 13 
     name thorax
     direction 0.0241905 0.99948 -0.0213333   
     length 2.10428   
     axis 0 0 0   XYZ
    dof rx ry rz
    limits (-20.0 45.0)
           (-30.0 30.0)
           (-30.0 30.0)
  end
  begin
     id 14 
     name lowerneck
     direction -0.00866847 0.995978 0.0891737   
     length 1.3959   
     axis 0 0 0   XYZ
    dof rx ry rz
    limits (-20.0 45.0)
           (-30.0 30.0)
           (-30.0 30.0)
  end
  begin
     id 15 
     name upperneck
     direction 0.0680679 0.992203 0.104404   
     length 1.39452   
     axis 0 0 0   XYZ
    dof rx ry rz
    limits (-20.0 45.0)
           (-30.0 30.0)
           (-30.0 30.0)
  end
  begin
     id 16
     name head
     direction 0.0242216 0.999358 0.0264054  
     length 1.40433  
     axis 0 0 0   XYZ
    dof rx ry rz
    limits (-20.0 45.0)
           (-30.0 30.0)
           (-30.0 30.0)
  end
  begin
     id 17 
     name lclavicle
     direction 0.929368 0.362991 -0.0671771  
     length 3.04887  
     axis 0 0 0   XYZ
    dof ry rz
    limits (-20.0 10.0)
           (0.0 20.0)
  end
  begin
     id 18 
     name lhumerus
     direction 1 -4.48967e-011 -7.13741e-028   
     length 4.77195   
     axis -180 -30 -90   XYZ
    dof rx ry rz
    limits (-60.0 90.0)
           (-90.0 90.0)
           (-90.0 90.0)
  end
  begin
     id 19
     name lradius
     direction 1 -4.48977e-011 3.60404e-027   
     length 2.98444   
     axis -180 -30 -90   XYZ
    dof rx
    limits (-10.0 170.0)
  end
  begin
     id 20
     name lwrist
     direction 1 -4.48997e-011 7.54877e-027   
     length 1.49222   
     axis -7.18178e-015 90 90   XYZ
    dof ry
    limits (-180.0 0.0)
 end
  begin
     id 21 
     name lhand
     direction 1 -4.489e-011 1.51105e-026   
     length 0.992285   
     axis -9.63605e-015 90 90   XYZ
    dof rx rz
    limits (-90.0 90.0)
           (-45.0 45.0)
  end
  begin
     id 22 
     name lfingers
     direction 1 -4.48998e-011 3.01948e-026   
     length 0.800006   
     axis -1.92718e-014 90 90   XYZ
    dof rx
    limits (0.0 90.0)
  end
  begin
     id 23
     name lthumb
     direction 0.707107 -6.34881e-011 0.707107   
     length 1.14865   
     axis -90 45 -3.53137e-014   XYZ
    dof rx rz
    limits (-45.0 45.0)
           (-45.0 45.0)
  end
  begin
     id 24 
     name rclavicle
     direction -0.945672 0.324529 0.0196374   
     length 3.4236  
     axis 0 0 0   XYZ 
    dof ry rz
    limits (-10.0 20.0)
           (-20.0 0.0)
  end
  begin
     id 25 
     name rhumerus
     direction -1 -4.4896e-011 1.02757e-029  
     length 4.62052   
     axis -180 30 90   XYZ
    dof rx ry rz
    limits (-90.0 60.0)
           (-90.0 90.0)
           (-90.0 90.0)
  end
  begin
     id 26 
     name rradius
     direction -1 -4.48982e-011 3.85962e-027   
     length 2.95332   
     axis -180 30 90   XYZ
    dof rx
    limits (-10.0 170.0)
  end
  begin
     id 27 
     name rwrist
     direction -1 -4.48961e-011 7.55118e-027   
     length 1.47666   
     axis -7.18178e-015 -90 -90   XYZ
    dof ry
    limits (-180.0 0.0)
  end
  begin
     id 28
     name rhand
     direction -1 -4.48984e-011 1.50994e-026   
     length 0.990956   
     axis -9.63605e-015 -90 -90   XYZ
    dof rx rz
    limits (-90.0 90.0)
           (-45.0 45.0)
  end
  begin
     id 29
     name rfingers
     direction -1 -4.4892e-011 3.02158e-026   
     length 0.798934   
     axis -1.92718e-014 -90 -90   XYZ
    dof rx
    limits (0.0 90.0)
  end
  begin
     id 30
     name rthumb
     direction -0.707107 -6.34916e-011 0.707107   
     length 1.14711   
     axis -90 -45 3.53137e-014   XYZ
    dof rx rz
    limits (-45.0 45.0)
           (-45.0 45.0)
  end
:hierarchy
  begin
    root lhipjoint rhipjoint lowerback
    lhipjoint lfemur
    lfemur ltibia
    ltibia lfoot
    lfoot ltoes
    rhipjoint rfemur
    rfemur rtibia
    rtibia rfoot
    rfoot rtoes
    lowerback upperback
    upperback thorax
    thorax lowerneck lclavicle rclavicle
    lowerneck upperneck
    upperneck head
    lclavicle lhumerus
    lhumerus lradius
    lradius lwrist
    lwrist lhand lthumb
    lhand lfingers
    rclavicle rhumerus
    rhumerus rradius
    rradius rwrist
    rwrist rhand rthumb
    rhand rfingers
  end

#!OML:ASF H:\ManfredObstacles\Project 1\Capture day 1\Session 1\Male.ASF
:FULLY-SPECIFIED
:DEGREES
118
root -1.95153 15.6481 44.3051 -172.075 -2.39562 -178.269
lowerback -5.64134 -0.982494 -0.514477
upperback 2.90207 -1.3181 0.312187
thorax 6.20632 -0.690237 0.468424
lowerneck 1.41153 -2.38706 -4.83745
upperneck -10.7753 -2.11077 8.98555
head -3.25341 -1.02155 3.58267
rclavicle -3.08116e-015 9.93923e-016
rhumerus -36.0425 -22.2165 -76.4495
rradius 28.62
rwrist 31.6407
rhand -1.28336 -5.23941
rfingers 7.12502
rthumb 24.3606 -33.7111
lclavicle -3.08116e-015 9.93923e-016
lhumerus -25.8602 11.6351 81.9634
lradius 21.1549
lwrist -25.2729
lhand -7.39204 8.18651
lfingers 7.12502
lthumb 18.4937 37.3274
rfemur -18.8484 -3.61637 26.3917
rtibia 37.0818
rfoot -28.2895 18.068
rtoes 17.2339
lfemur -41.9112 -4.27255 -16.7175
ltibia 56.2944
lfoot -7.86593 1.80927
ltoes -4.50517
119
root -1.94753 15.6454 44.1721 -172.138 -2.08044 -178.366
lowerback -5.57111 -0.854135 -0.598759
upperback 2.9439 -1.14027 0.287534
thorax 6.20885 -0.606424 0.510192
lowerneck 1.47064 -2.47 -4.89339
upperneck -10.5681 -2.26782 8.93925
head -3.19063 -1.10406 3.57977
rclavicle 6.65929e-015 -7.55382e-015
rhumerus -35.7923 -21.8017 -76.7486
rradius 28.8417
rwrist 31.5873
rhand -1.20485 -5.21434
rfingers 7.12502
rthumb 24.4358 -33.6759
lclavicle 6.65929e-015 -7.55382e-015
lhumerus -26.1478 12.1639 81.7054
lradius 20.743
lwrist -26.7383
lhand -8.08252 8.53285
lfingers 7.12502
lthumb 17.8294 37.7355
rfemur -18.1344 -3.50678 26.2545
rtibia 36.8576
rfoot -28.5114 18.2548
rtoes 17.1367
lfemur -42.2615 -4.20014 -16.7543
ltibia 53.7611
lfoot -7.49826 1.3001
ltoes -4.59895
120
root -1.94318 15.6424 44.036 -172.193 -1.79777 -178.41
lowerback -5.52489 -0.811607 -0.727012
upperback 2.99959 -1.07994 0.359738
thorax 6.24422 -0.585047 0.664032
lowerneck 1.44847 -2.32912 -4.90613
upperneck -10.7892 -2.07416 8.71798
head -3.27008 -0.996269 3.51198
rclavicle 6.16232e-015 9.14409e-015
rhumerus -35.3801 -21.1581 -77.0356
rradius 28.9187
rwrist 31.3021
rhand -1.27245 -5.17432
rfingers 7.12502
rthumb 24.371 -33.6446
lclavicle 6.16232e-015 9.14409e-015
lhumerus -26.3444 13.8182 81.0611
lradius 20.1496
lwrist -28.0403
lhand -7.99041 8.13879
lfingers 7.12502
lthumb 17.9181 37.3334
rfemur -17.3842 -3.27496 26.1787
rtibia 36.5911
rfoot -28.3368 18.3167
rtoes 16.4406
lfemur -42.5451 -3.98628 -16.8007
ltibia 51.282
lfoot -6.85684 0.616487
ltoes -7.34975
121
root -1.94174 15.638 43.8988 -172.253 -1.54087 -178.545
lowerback -5.47637 -0.748074 -0.880156
upperback 3.05408 -0.984487 0.349157
thorax 6.27471 -0.545482 0.749484
lowerneck 1.38638 -2.31013 -4.92784
upperneck -10.7643 -2.05305 8.68193
head -3.25409 -0.982235 3.50281
rclavicle -1.98785e-015 -3.18055e-015
rhumerus -34.9503 -20.7153 -77.3171
rradius 28.9043
rwrist 31.0767
rhand -1.38154 -5.26767
rfingers 7.12502
rthumb 24.2665 -33.752
lclavicle -1.98785e-015 -3.18055e-015
lhumerus -26.5037 14.4683 80.7113
lradius 19.7397
lwrist -28.5857
lhand -8.01439 8.40844
lfingers 7.12502
lthumb 17.895 37.6051
rfemur -16.597 -3.03853 26.0028
rtibia 36.2649
rfoot -27.7996 18.1625
rtoes 15.4501
lfemur -42.7013 -3.76176 -16.9772
ltibia 48.9246
lfoot -6.2961 -0.142662
ltoes -10.1192
122
root -1.94662 15.6268 43.7574 -172.298 -1.26623 -178.649
lowerback -5.4969 -0.665548 -0.88041
upperback 3.08892 -0.869422 0.256081
thorax 6.31931 -0.487307 0.664642
lowerneck 1.41045 -2.34498 -5.04718
upperneck -10.4487 -2.12245 8.91832
head -3.15374 -1.02703 3.5929
rclavicle -6.95746e-016 -4.57205e-015
rhumerus -34.6381 -20.466 -77.6333
rradius 28.9303
rwrist 30.961
rhand -1.50448 -5.38284
rfingers 7.12502
rthumb 24.1486 -33.8828
lclavicle -6.95746e-016 -4.57205e-015
lhumerus -26.743 14.9328 80.2096
lradius 19.3614
lwrist -29.0382
lhand -7.9968 8.33529
lfingers 7.12502
lthumb 17.9119 37.5304
rfemur -15.7812 -2.91727 25.8398
rtibia 35.8972
rfoot -27.1316 18.0834
rtoes 15.0189
lfemur -42.7621 -3.657 -17.0589
ltibia 46.699
lfoot -6.05064 -0.88331
ltoes -8.74183
123
root -1.9527 15.622 43.6102 -172.307 -0.942296 -178.555
lowerback -5.61345 -0.551216 -0.719189
upperback 3.1112 -0.726729 0.220605
thorax 6.40434 -0.409546 0.551516
lowerneck 1.43117 -2.24261 -4.9813
upperneck -10.494 -1.96733 8.95522
head -3.18205 -0.952108 3.59021
rclavicle 6.16232e-015 -1.98785e-016
rhumerus -34.4162 -20.1963 -77.9135
rradius 29.0368
rwrist 30.702
rhand -1.51912 -5.30784
rfingers 7.12502
rthumb 24.1345 -33.8097
lclavicle 6.16232e-015 -1.98785e-016
lhumerus -27.0191 15.6896 79.5999
lradius 18.9929
lwrist -29.6888
lhand -7.89205 7.97743
lfingers 7.12502
lthumb 18.0127 37.1633
rfemur -14.9724 -2.84325 25.8835
rtibia 35.5336
rfoot -28.5671 18.7226
rtoes 19.7548
lfemur -42.7499 -3.35181 -16.9923
ltibia 44.588
lfoot -5.21106 -1.35887
ltoes -12.1948
124
root -1.95745 15.6265 43.4594 -172.311 -0.760908 -178.67
lowerback -5.76461 -0.490975 -0.870604
upperback 3.15996 -0.631726 0.203979
thorax 6.5431 -0.369804 0.628191
lowerneck 1.31948 -2.20786 -5.03101
upperneck -10.4908 -1.90611 9.01799
head -3.16509 -0.916777 3.61464
rclavicle -3.18055e-015 2.38542e-015
rhumerus -34.1323 -19.9968 -78.0592
rradius 29.1462
rwrist 30.6183
rhand -1.22752 -5.25466
rfingers 7.12502
rthumb 24.4141 -33.7191
lclavicle -3.18055e-015 2.38542e-015
lhumerus -27.2194 16.3834 79.1733
lradius 18.6539
lwrist -30.3854
lhand -7.86063 8.07684
lfingers 7.12502
lthumb 18.0429 37.2599
rfemur -14.1442 -2.76265 25.7269
rtibia 35.1672
rfoot -27.6388 17.5721
rtoes 10.6266
lfemur -42.6406 -2.99518 -17.2239
ltibia 42.58
lfoot -5.14842 -1.75915
ltoes -18.7034
125
root -1.96581 15.623 43.3062 -172.311 -0.780363 -178.969
lowerback -5.91502 -0.514729 -1.18405
upperback 3.17972 -0.631594 0.158418
thorax 6.65416 -0.382881 0.755274
lowerneck 1.30722 -2.19285 -5.07767
upperneck -10.4639 -1.89164 9.01619
head -3.15556 -0.908209 3.62101
rclavicle 1.68967e-015 1.98785e-016
rhumerus -33.9249 -19.7581 -78.1882
rradius 29.2814
rwrist 30.5756
rhand -1.04479 -5.3254
rfingers 7.12502
rthumb 24.5893 -33.7662
lclavicle 1.68967e-015 1.98785e-016
lhumerus -27.4751 16.8892 78.815
lradius 18.3487
lwrist -31.155
lhand -7.8257 8.46339
lfingers 7.12502
lthumb 18.0765 37.6434
rfemur -13.2835 -2.70705 25.373
rtibia 34.7592
rfoot -29.3919 19.281
rtoes 23.6898
lfemur -42.4579 -2.88039 -17.6374
ltibia 40.7293
lfoot -4.90658 -2.49318
ltoes -17.1212
126
root -1.97909 15.6159 43.1473 -172.267 -0.753543 -178.983
lowerback -6.14028 -0.511585 -1.17299
upperback 3.1653 -0.624085 0.171604
thorax 6.76863 -0.378497 0.762054
lowerneck 1.49405 -2.19499 -4.99201
upperneck -10.5986 -1.91131 8.82235
head -3.22972 -0.921143 3.5521
rclavicle -3.03147e-015 -8.15017e-015
rhumerus -33.8267 -19.3797 -78.3568
rradius 29.4799
rwrist 30.2887
rhand -1.09736 -5.4011
rfingers 7.12502
rthumb 24.5389 -33.8487
lclavicle -3.03147e-015 -8.15017e-015
lhumerus -27.7671 17.8598 78.2456
lradius 17.9023
lwrist -32.336
lhand -7.8841 8.32491
lfingers 7.12502
lthumb 18.0204 37.5101
rfemur -12.4672 -2.72039 25.2884
rtibia 34.3414
rfoot -29.4212 19.1915
rtoes 22.8893
lfemur -42.2314 -2.89693 -17.6448
ltibia 39.0386
lfoot -4.43423 -2.23138
ltoes -12.9698
127
root -1.99467 15.6155 42.9812 -172.166 -0.699095 -178.855
lowerback -6.48708 -0.466443 -0.917254
upperback 3.16699 -0.578097 0.130278
thorax 6.96607 -0.342894 0.578167
lowerneck 1.53642 -2.18732 -4.84359
upperneck -10.8099 -1.88 8.70576
head -3.3056 -0.904012 3.4941
rclavicle -9.24349e-015 1.98785e-016
rhumerus -33.7154 -19.1504 -78.6218
rradius 29.7922
rwrist 30.007
rhand -0.891089 -5.54293
rfingers 7.12502
rthumb 24.7366 -33.9636
lclavicle -9.24349e-015 1.98785e-016
lhumerus -28.043 18.7943 77.5689
lradius 17.5804
lwrist -33.3182
lhand -7.97863 8.03686
lfingers 7.12502
lthumb 17.9294 37.2304
rfemur -11.6891 -2.7453 25.3581
rtibia 33.8909
rfoot -29.0741 18.8972
rtoes 20.5907
lfemur -42.0596 -2.96767 -17.4056
ltibia 37.5902
lfoot -3.97347 -1.94196
ltoes -7.64225
128
root -2.01079 15.6083 42.8119 -172.103 -0.782699 -178.749
lowerback -6.62824 -0.405744 -0.69389
upperback 3.07067 -0.508028 0.0588941
thorax 6.94089 -0.29416 0.386378
lowerneck 1.55666 -2.46504 -4.83465
upperneck -10.3747 -2.29235 8.90632
head -3.14731 -1.12441 3.55907
rclavicle 2.23633e-015 1.39149e-015
rhumerus -33.8503 -19.0289 -78.8404
rradius 30.0923
rwrist 29.3689
rhand -0.94475 -5.73264
rfingers 7.12502
rthumb 24.6852 -34.1603
lclavicle 2.23633e-015 1.39149e-015
lhumerus -28.5006 18.7595 77.1453
lradius 17.6115
lwrist -33.3429
lhand -7.90207 8.09295
lfingers 7.12502
lthumb 18.0031 37.2797
rfemur -10.8086 -2.7265 25.4267
rtibia 33.4073
rfoot -31.2415 18.5669
rtoes 21.3737
lfemur -41.9722 -3.08483 -17.2375
ltibia 36.3973
lfoot -4.19837 -2.20932
ltoes -3.08787
